<svg xmlns="http://www.w3.org/2000/svg" xmlns:xlink="http://www.w3.org/1999/xlink" viewBox="0 0 72.85 63.91"><defs><style>.cls-1,.cls-2{fill:none;stroke-width:2px;}.cls-1{stroke-miterlimit:10;stroke:url(#New_Gradient_Swatch_1);}.cls-2{stroke-linejoin:round;stroke:url(#New_Gradient_Swatch_1-2);}</style><linearGradient id="New_Gradient_Swatch_1" x1="13.83" y1="54.56" x2="59.03" y2="9.36" gradientUnits="userSpaceOnUse"><stop offset="0" stop-color="#408bfc"/><stop offset="1" stop-color="#bb8eff"/></linearGradient><linearGradient id="New_Gradient_Swatch_1-2" x1="23.75" y1="41.72" x2="49.1" y2="16.37" xlink:href="#New_Gradient_Swatch_1"/></defs><title>Asset 4</title><g id="Layer_2" data-name="Layer 2"><g id="Layer_1-2" data-name="Layer 1"><path class="cls-1" d="M66.55,39.1A31,31,0,0,1,5.47,32M.71,36.72,5.47,32l4.76,4.76M6.31,24.81A31,31,0,0,1,67.38,32m4.77-4.77L67.38,32l-4.76-4.77"/><path class="cls-2" d="M36.43,10.53A13.12,13.12,0,0,1,49.52,23.38c0,3.5-2.05,6.85-4.54,9.39-2.94,3-3.64,5.7-3.64,8.07v.64H31.51v-.64c0-2.37-.7-5.05-3.64-8.07-2.49-2.54-4.54-5.89-4.54-9.38a13.13,13.13,0,0,1,13.1-12.86M31.66,46.24h9.53M34.05,51h4.76"/></g></g></svg>