<svg xmlns="http://www.w3.org/2000/svg" xmlns:xlink="http://www.w3.org/1999/xlink" viewBox="0 0 63.97 62.98"><defs><style>.cls-1{fill:url(#New_Gradient_Swatch_1);}.cls-2,.cls-3,.cls-4{fill:none;stroke-width:2px;}.cls-2,.cls-3{stroke-miterlimit:10;}.cls-2{stroke:url(#linear-gradient);}.cls-3{stroke:url(#linear-gradient-2);}.cls-4{stroke-linejoin:round;stroke:url(#New_Gradient_Swatch_1-2);}</style><linearGradient id="New_Gradient_Swatch_1" x1="-3.86" y1="37.88" x2="33.75" y2="0.27" gradientUnits="userSpaceOnUse"><stop offset="0" stop-color="#408bfc"/><stop offset="1" stop-color="#bb8eff"/></linearGradient><linearGradient id="linear-gradient" x1="3.95" y1="16.36" x2="7.77" y2="12.55" gradientUnits="userSpaceOnUse"><stop offset="0" stop-color="#728cfd"/><stop offset="1" stop-color="#7f8dfe"/></linearGradient><linearGradient id="linear-gradient-2" x1="51.79" y1="39.36" x2="58.47" y2="32.67" gradientUnits="userSpaceOnUse"><stop offset="0" stop-color="#8a8dfe"/><stop offset="1" stop-color="#968dfe"/></linearGradient><linearGradient id="New_Gradient_Swatch_1-2" x1="2.61" y1="52.9" x2="55.31" y2="0.19" xlink:href="#New_Gradient_Swatch_1"/></defs><title>Asset 2</title><g id="Layer_2" data-name="Layer 2"><g id="Layer_1-2" data-name="Layer 1"><path class="cls-1" d="M6.16,4.1a1,1,0,1,1-1-1A1,1,0,0,1,6.16,4.1Zm3.1-1a1,1,0,1,0,1,1A1,1,0,0,0,9.26,3.07Zm4.13,0a1,1,0,1,0,1,1A1,1,0,0,0,13.39,3.07Zm22.73,8.26a1,1,0,1,0,1,1A1,1,0,0,0,36.12,11.33Zm4.13,0a1,1,0,1,0,1,1A1,1,0,0,0,40.25,11.33Zm4.13,0a1,1,0,1,0,1,1A1,1,0,0,0,44.38,11.33ZM9.26,48.51a1,1,0,1,0,1,1A1,1,0,0,0,9.26,48.51Z"/><polyline class="cls-2" points="5.13 11.33 8.27 14.47 5.13 17.53"/><polyline class="cls-3" points="57.28 31.49 53.69 35.08 53.68 40.25"/><path class="cls-4" d="M1,27.86V1H25.79V27.86ZM25.79,7.2H1M9.27,19.59h6.21M6.16,38.18h6.2m-6.2,4.14h6.2M39.2,44.38H63V9.26H32V32m0-16.52H63m-59.91,31h12.4m0-11.22a1.21,1.21,0,0,0-1.21-1.21h-10a1.21,1.21,0,0,0-1.21,1.21V51.44a1.21,1.21,0,0,0,1.21,1.21h10a1.21,1.21,0,0,0,1.21-1.21Zm38.23-5.34a5.17,5.17,0,1,0,5.16,5.17A5.17,5.17,0,0,0,53.69,29.92ZM36.12,19.59h8.26m6.2,0h8.26M36.12,23.72h8.26m-8.26,4.14h8.26m6.2-4.14h8.26M46.45,63V61.9a14.46,14.46,0,0,0-11.07-14,8.31,8.31,0,1,0-6.77,0,14.47,14.47,0,0,0-11.08,14V63"/></g></g></svg>