<svg xmlns="http://www.w3.org/2000/svg" xmlns:xlink="http://www.w3.org/1999/xlink" viewBox="0 0 63.86 63.41"><defs><style>.cls-1{fill:url(#New_Gradient_Swatch_1);}.cls-2{fill:none;stroke-linejoin:round;stroke-width:2px;stroke:url(#New_Gradient_Swatch_1-2);}</style><linearGradient id="New_Gradient_Swatch_1" x1="15.78" y1="42.4" x2="51.17" y2="7.02" gradientUnits="userSpaceOnUse"><stop offset="0" stop-color="#408bfc"/><stop offset="1" stop-color="#bb8eff"/></linearGradient><linearGradient id="New_Gradient_Swatch_1-2" x1="4.08" y1="52.56" x2="58.75" y2="-2.1" xlink:href="#New_Gradient_Swatch_1"/></defs><title>Asset 3</title><g id="Layer_2" data-name="Layer 2"><g id="Layer_1-2" data-name="Layer 1"><path class="cls-1" d="M22.65,36.05A2.06,2.06,0,1,1,20.59,34,2.06,2.06,0,0,1,22.65,36.05ZM28.84,34a2.06,2.06,0,1,0,2.06,2.06A2.07,2.07,0,0,0,28.84,34Zm-16.5,0a2.06,2.06,0,1,0,2.06,2.06A2.06,2.06,0,0,0,12.34,34Zm34-22.68a2.06,2.06,0,1,0,2.06,2.06A2.06,2.06,0,0,0,46.36,11.31Zm8.25,0a2.06,2.06,0,1,0,2.06,2.06A2.06,2.06,0,0,0,54.61,11.31Zm-16.5,0a2.06,2.06,0,1,0,2.07,2.06A2.06,2.06,0,0,0,38.11,11.31Z"/><path class="cls-2" d="M21.62,62.86,13.37,50.49H5.12A4.14,4.14,0,0,1,1,46.36V25.74a4.14,4.14,0,0,1,4.12-4.12H36.05a4.14,4.14,0,0,1,4.13,4.12V46.36a4.14,4.14,0,0,1-4.13,4.13H21.62M48.42,34l4.13-8.25h6.18a4.14,4.14,0,0,0,4.13-4.12V5.12A4.14,4.14,0,0,0,58.73,1H34a4.13,4.13,0,0,0-4.12,4.12v16.5m16.49,4.12h-6.2"/></g></g></svg>